<?xml version="1.0" encoding="UTF-8" standalone="no"?>
<svg
   xmlns:dc="http://purl.org/dc/elements/1.1/"
   xmlns:cc="http://creativecommons.org/ns#"
   xmlns:rdf="http://www.w3.org/1999/02/22-rdf-syntax-ns#"
   xmlns:svg="http://www.w3.org/2000/svg"
   xmlns="http://www.w3.org/2000/svg"
   xmlns:sodipodi="http://sodipodi.sourceforge.net/DTD/sodipodi-0.dtd"
   xmlns:inkscape="http://www.inkscape.org/namespaces/inkscape"
   height="600"
   version="1.1"
   width="600"
   id="svg3414"
   inkscape:version="0.91 r13725"
   sodipodi:docname="0001.svg">
  <metadata
     id="metadata3452">
    <rdf:RDF>
      <cc:Work
         rdf:about="">
        <dc:format>image/svg+xml</dc:format>
        <dc:type
           rdf:resource="http://purl.org/dc/dcmitype/StillImage" />
        <dc:title></dc:title>
      </cc:Work>
    </rdf:RDF>
  </metadata>
  <defs
     id="defs3450" />
  <sodipodi:namedview
     pagecolor="#ffffff"
     bordercolor="#666666"
     borderopacity="1"
     objecttolerance="10"
     gridtolerance="10"
     guidetolerance="10"
     inkscape:pageopacity="0"
     inkscape:pageshadow="2"
     inkscape:window-width="1920"
     inkscape:window-height="937"
     id="namedview3448"
     showgrid="false"
     inkscape:zoom="1.245"
     inkscape:cx="158.63454"
     inkscape:cy="300"
     inkscape:window-x="0"
     inkscape:window-y="27"
     inkscape:window-maximized="1"
     inkscape:current-layer="strokes"
     inkscape:showpageshadow="false" />
  <g
     id="RenderLayer_LineSet"
     inkscape:groupmode="lineset"
     inkscape:label="RenderLayer_LineSet">
    <g
       id="strokes"
       inkscape:groupmode="layer"
       inkscape:label="strokes">
      <path
         d=" M 317.811, 374.427 308.967, 379.093 300.122, 383.759 291.277, 388.425 282.432, 393.091 273.588, 397.757 264.743, 402.423 255.898, 407.088 247.053, 411.754 244.071, 413.328 235.849, 407.635 227.628, 401.942 219.407, 396.249 211.185, 390.556 202.964, 384.863 194.743, 379.169 186.522, 373.476 178.300, 367.783 170.079, 362.090 161.858, 356.397 153.637, 350.704 145.415, 345.011 137.194, 339.318 132.557, 336.107 123.220, 339.688 113.883, 343.269 104.858, 346.731 105.172, 348.781 113.148, 354.813 121.124, 360.845 129.100, 366.877 137.076, 372.908 145.052, 378.940 153.028, 384.972 161.004, 391.004 168.980, 397.036 176.956, 403.068 184.932, 409.100 192.908, 415.132 200.884, 421.164 208.860, 427.195 214.418, 431.399 222.394, 437.431 230.369, 443.462 236.278, 447.931 244.254, 453.963 252.230, 459.995 260.206, 466.027 268.182, 472.059 276.158, 478.090 284.134, 484.122 292.110, 490.154 300.086, 496.186 308.062, 502.218 316.038, 508.250 324.014, 514.282 331.990, 520.314 339.966, 526.346 347.942, 532.377 355.918, 538.409 363.894, 544.441 368.654, 548.041 376.423, 541.745 384.193, 535.450 391.963, 529.154 399.056, 523.407 399.290, 520.814 391.069, 515.121 382.848, 509.428 374.626, 503.735 366.405, 498.042 358.184, 492.349 349.963, 486.656 341.741, 480.963 333.520, 475.269 325.299, 469.576 317.078, 463.883 308.856, 458.190 300.635, 452.497 292.414, 446.804 284.192, 441.111 275.971, 435.418 268.118, 429.980 266.227, 428.671 "
         fill="none"
         stroke="rgb(0, 0, 0)"
         stroke-linecap="butt"
         stroke-linejoin="round"
         stroke-opacity="1.0"
         stroke-width="3.0"
         id="path3418"
         style="stroke-width:1;stroke-miterlimit:4;stroke-dasharray:none;stroke:#ffffff;stroke-opacity:1" />
      <path
         d=" M 104.858, 346.731 112.848, 352.744 120.838, 358.758 128.828, 364.771 136.818, 370.784 144.808, 376.798 152.798, 382.811 160.788, 388.824 168.778, 394.838 176.768, 400.851 184.758, 406.864 192.748, 412.877 200.738, 418.891 208.728, 424.904 214.249, 429.059 222.239, 435.073 230.229, 441.086 236.148, 445.541 244.138, 451.554 252.128, 457.567 260.118, 463.581 268.108, 469.594 276.098, 475.607 284.088, 481.621 292.078, 487.634 300.068, 493.647 308.058, 499.660 316.048, 505.674 324.038, 511.687 332.028, 517.700 340.018, 523.714 348.008, 529.727 355.998, 535.740 363.988, 541.753 368.823, 545.392 "
         fill="none"
         stroke="rgb(0, 0, 0)"
         stroke-linecap="butt"
         stroke-linejoin="round"
         stroke-opacity="1.0"
         stroke-width="3.0"
         id="path3420"
         style="stroke-width:1;stroke-miterlimit:4;stroke-dasharray:none;stroke:#ffffff;stroke-opacity:1" />
      <path
         d=" M 368.654, 548.041 368.823, 545.392 376.607, 539.114 384.390, 532.835 392.173, 526.556 399.290, 520.814 "
         fill="none"
         stroke="rgb(0, 0, 0)"
         stroke-linecap="butt"
         stroke-linejoin="round"
         stroke-opacity="1.0"
         stroke-width="3.0"
         id="path3422"
         style="stroke-width:1;stroke-miterlimit:4;stroke-dasharray:none;stroke:#ffffff;stroke-opacity:1" />
      <path
         d=" M 266.227, 428.671 274.949, 423.779 283.671, 418.888 292.393, 413.996 301.115, 409.104 309.837, 404.213 317.446, 399.945 "
         fill="none"
         stroke="rgb(0, 0, 0)"
         stroke-linecap="butt"
         stroke-linejoin="round"
         stroke-opacity="1.0"
         stroke-width="3.0"
         id="path3424"
         style="stroke-width:1;stroke-miterlimit:4;stroke-dasharray:none;stroke:#ffffff;stroke-opacity:1" />
      <path
         d=" M 484.181, 454.348 485.742, 444.471 487.303, 434.593 488.864, 424.716 490.426, 414.839 491.987, 404.961 493.548, 395.084 495.109, 385.207 496.670, 375.329 498.231, 365.452 499.793, 355.574 501.354, 345.697 502.915, 335.820 504.476, 325.942 506.037, 316.065 507.598, 306.187 509.159, 296.310 510.721, 286.433 512.282, 276.555 513.843, 266.678 515.404, 256.801 516.965, 246.923 518.526, 237.046 520.088, 227.168 521.649, 217.291 523.210, 207.414 524.771, 197.536 526.332, 187.659 527.893, 177.781 529.455, 167.904 531.016, 158.027 533.054, 145.130 523.222, 143.305 513.390, 141.480 503.558, 139.655 493.726, 137.831 483.894, 136.006 474.062, 134.181 464.229, 132.356 454.397, 130.531 444.565, 128.706 434.733, 126.882 424.901, 125.057 415.069, 123.232 405.237, 121.407 395.405, 119.582 385.573, 117.758 382.786, 117.240 372.993, 119.264 363.200, 121.288 353.407, 123.312 343.614, 125.336 333.821, 127.360 324.196, 129.349 321.308, 129.946 321.165, 139.945 321.022, 149.944 320.879, 159.943 320.736, 169.942 320.593, 179.941 320.450, 189.940 320.307, 199.939 320.164, 209.938 320.021, 219.937 319.878, 229.936 319.735, 239.935 319.592, 249.934 319.449, 259.933 319.306, 269.932 319.163, 279.931 319.020, 289.930 318.877, 299.929 318.734, 309.928 318.591, 319.927 318.448, 329.926 318.305, 339.925 318.162, 349.924 318.006, 360.795 317.969, 363.372 317.826, 373.371 317.811, 374.427 317.781, 376.581 317.638, 386.580 317.495, 396.579 317.446, 399.945 317.414, 402.189 317.271, 412.188 317.158, 420.074 "
         fill="none"
         stroke="rgb(0, 0, 0)"
         stroke-linecap="butt"
         stroke-linejoin="round"
         stroke-opacity="1.0"
         stroke-width="3.0"
         id="path3426"
         style="stroke-width:1;stroke-miterlimit:4;stroke-dasharray:none;stroke:#ffffff;stroke-opacity:1" />
      <path
         d=" M 484.181, 454.348 476.411, 460.643 468.641, 466.938 460.871, 473.233 453.100, 479.528 445.330, 485.823 437.560, 492.117 429.790, 498.412 422.020, 504.707 414.250, 511.002 411.882, 512.920 403.581, 507.344 395.281, 501.767 386.980, 496.191 378.679, 490.614 370.378, 485.038 362.077, 479.462 353.776, 473.885 345.475, 468.309 337.175, 462.733 328.099, 456.636 "
         fill="none"
         stroke="rgb(0, 0, 0)"
         stroke-linecap="butt"
         stroke-linejoin="round"
         stroke-opacity="1.0"
         stroke-width="3.0"
         id="path3428"
         style="stroke-width:1;stroke-miterlimit:4;stroke-dasharray:none;stroke:#ffffff;stroke-opacity:1" />
      <path
         d=" M 411.882, 512.920 412.888, 502.971 413.894, 493.021 414.900, 483.072 415.905, 473.123 416.911, 463.173 417.917, 453.224 418.923, 443.275 419.929, 433.326 420.934, 423.376 421.296, 419.803 422.301, 409.854 423.307, 399.904 424.313, 389.955 425.319, 380.006 426.325, 370.056 427.330, 360.107 428.336, 350.158 429.342, 340.209 430.348, 330.259 431.354, 320.310 432.359, 310.361 433.365, 300.411 434.371, 290.462 435.377, 280.513 436.383, 270.564 437.388, 260.614 438.394, 250.665 439.400, 240.716 440.406, 230.766 441.412, 220.817 442.417, 210.868 443.423, 200.918 444.429, 190.969 445.435, 181.020 446.301, 172.452 "
         fill="none"
         stroke="rgb(0, 0, 0)"
         stroke-linecap="butt"
         stroke-linejoin="round"
         stroke-opacity="1.0"
         stroke-width="3.0"
         id="path3430"
         style="stroke:#ffffff;stroke-opacity:1;stroke-width:1;stroke-miterlimit:4;stroke-dasharray:none" />
      <path
         d=" M 335.600, 146.164 345.330, 148.474 355.059, 150.785 363.955, 152.897 373.685, 155.208 383.414, 157.518 393.144, 159.828 402.873, 162.139 412.602, 164.449 422.332, 166.760 432.061, 169.070 441.791, 171.380 446.301, 172.452 455.839, 169.448 465.377, 166.444 474.916, 163.440 484.454, 160.436 493.992, 157.432 503.530, 154.428 513.068, 151.424 522.606, 148.420 532.144, 145.416 533.054, 145.130 "
         fill="none"
         stroke="rgb(0, 0, 0)"
         stroke-linecap="butt"
         stroke-linejoin="round"
         stroke-opacity="1.0"
         stroke-width="3.0"
         id="path3432"
         style="stroke-width:1;stroke-miterlimit:4;stroke-dasharray:none;stroke:#ffffff;stroke-opacity:1" />
      <path
         d=" M 364.542, 139.434 354.802, 141.699 345.062, 143.964 335.600, 146.164 335.359, 156.161 335.117, 166.158 334.876, 176.155 334.634, 186.152 334.393, 196.149 334.151, 206.146 333.909, 216.143 333.668, 226.140 333.426, 236.137 333.185, 246.135 332.943, 256.132 332.702, 266.129 332.460, 276.126 332.219, 286.123 331.977, 296.120 331.736, 306.117 331.494, 316.114 331.253, 326.111 331.011, 336.108 330.770, 346.105 330.528, 356.102 330.244, 367.869 330.192, 369.999 329.951, 379.996 329.709, 389.993 329.634, 393.110 329.580, 395.330 329.339, 405.327 329.153, 413.032 328.911, 423.029 328.805, 427.417 328.563, 437.414 328.322, 447.411 328.099, 456.636 "
         fill="none"
         stroke="rgb(0, 0, 0)"
         stroke-linecap="butt"
         stroke-linejoin="round"
         stroke-opacity="1.0"
         stroke-width="3.0"
         id="path3434"
         style="stroke-width:1;stroke-miterlimit:4;stroke-dasharray:none;stroke:#ffffff;stroke-opacity:1" />
      <path
         d=" M 321.308, 129.946 324.176, 130.576 333.944, 132.719 343.711, 134.863 353.479, 137.006 363.246, 139.150 364.542, 139.434 "
         fill="none"
         stroke="rgb(0, 0, 0)"
         stroke-linecap="butt"
         stroke-linejoin="round"
         stroke-opacity="1.0"
         stroke-width="3.0"
         id="path3436"
         style="stroke-width:1;stroke-miterlimit:4;stroke-dasharray:none;stroke:#ffffff;stroke-opacity:1" />
      <path
         d=" M 324.196, 129.349 324.359, 119.351 324.521, 109.352 324.683, 99.353 324.846, 89.355 325.008, 79.356 325.170, 69.357 325.333, 59.358 325.495, 49.360 325.604, 42.666 315.650, 41.707 305.696, 40.748 295.742, 39.790 285.788, 38.831 275.834, 37.872 265.880, 36.913 255.926, 35.954 245.972, 34.996 236.018, 34.037 226.064, 33.078 220.124, 32.506 210.148, 33.191 200.171, 33.875 190.195, 34.560 180.218, 35.245 170.242, 35.930 160.265, 36.615 150.289, 37.299 140.312, 37.984 130.336, 38.669 128.837, 38.772 129.913, 48.714 130.990, 58.656 132.066, 68.597 133.143, 78.539 134.219, 88.481 135.295, 98.423 136.372, 108.365 137.448, 118.307 138.525, 128.249 139.601, 138.191 140.677, 148.133 141.754, 158.075 142.830, 168.016 143.907, 177.958 144.983, 187.900 146.060, 197.842 147.136, 207.784 148.212, 217.726 149.289, 227.668 150.365, 237.610 151.442, 247.552 152.518, 257.494 153.594, 267.435 154.671, 277.377 155.747, 287.319 156.824, 297.261 157.900, 307.203 158.977, 317.145 160.053, 327.087 161.129, 337.029 161.943, 344.541 170.247, 350.112 178.551, 355.684 186.855, 361.255 195.159, 366.827 203.464, 372.398 211.768, 377.970 220.072, 383.541 228.376, 389.113 236.680, 394.684 245.562, 400.643 254.453, 396.066 263.344, 391.490 272.236, 386.913 281.127, 382.336 290.018, 377.760 298.909, 373.183 307.801, 368.606 316.692, 364.030 317.969, 363.372 "
         fill="none"
         stroke="rgb(0, 0, 0)"
         stroke-linecap="butt"
         stroke-linejoin="round"
         stroke-opacity="1.0"
         stroke-width="3.0"
         id="path3438"
         style="stroke-width:1;stroke-miterlimit:4;stroke-dasharray:none;stroke:#ffffff;stroke-opacity:1" />
      <path
         d=" M 128.837, 38.772 138.759, 40.015 148.682, 41.258 158.604, 42.502 168.527, 43.745 178.449, 44.988 188.371, 46.232 198.294, 47.475 208.216, 48.718 218.139, 49.961 228.061, 51.205 229.968, 51.444 "
         fill="none"
         stroke="rgb(0, 0, 0)"
         stroke-linecap="butt"
         stroke-linejoin="round"
         stroke-opacity="1.0"
         stroke-width="3.0"
         id="path3440"
         style="stroke-width:1;stroke-miterlimit:4;stroke-dasharray:none;stroke:#ffffff;stroke-opacity:1" />
      <path
         d=" M 245.562, 400.643 245.116, 390.653 244.670, 380.663 244.224, 370.673 243.777, 360.683 243.331, 350.693 242.885, 340.703 242.439, 330.713 241.993, 320.723 241.547, 310.733 241.101, 300.743 240.655, 290.753 240.208, 280.763 239.762, 270.772 239.316, 260.782 238.870, 250.792 238.424, 240.802 237.978, 230.812 237.532, 220.822 237.085, 210.832 236.639, 200.842 236.193, 190.852 235.747, 180.862 235.301, 170.872 234.855, 160.882 234.409, 150.892 233.963, 140.902 233.516, 130.912 233.070, 120.922 232.624, 110.932 232.178, 100.942 231.732, 90.952 231.286, 80.962 230.840, 70.972 230.393, 60.982 229.968, 51.444 239.926, 50.530 249.884, 49.616 259.842, 48.702 269.800, 47.788 279.758, 46.874 289.716, 45.960 299.675, 45.046 309.633, 44.132 319.591, 43.218 325.604, 42.666 "
         fill="none"
         stroke="rgb(0, 0, 0)"
         stroke-linecap="butt"
         stroke-linejoin="round"
         stroke-opacity="1.0"
         stroke-width="3.0"
         id="path3442"
         style="stroke-width:1;stroke-miterlimit:4;stroke-dasharray:none;stroke:#ffffff;stroke-opacity:1" />
      <path
         d=" M 328.805, 427.417 320.346, 422.084 317.158, 420.074 "
         fill="none"
         stroke="rgb(0, 0, 0)"
         stroke-linecap="butt"
         stroke-linejoin="round"
         stroke-opacity="1.0"
         stroke-width="3.0"
         id="path3444"
         style="stroke-width:1;stroke-miterlimit:4;stroke-dasharray:none;stroke:#ffffff;stroke-opacity:1" />
      <path
         d=" M 268.118, 429.980 276.829, 425.069 285.540, 420.158 294.251, 415.247 302.962, 410.336 311.673, 405.425 317.414, 402.189 "
         fill="none"
         stroke="rgb(0, 0, 0)"
         stroke-linecap="butt"
         stroke-linejoin="round"
         stroke-opacity="1.0"
         stroke-width="3.0"
         id="path3446"
         style="stroke-width:1;stroke-miterlimit:4;stroke-dasharray:none;stroke:#ffffff;stroke-opacity:1" />
    </g>
  </g>
</svg>
