<?xml version="1.0" standalone="no"?>
<!DOCTYPE svg PUBLIC "-//W3C//DTD SVG 20010904//EN"
 "http://www.w3.org/TR/2001/REC-SVG-20010904/DTD/svg10.dtd">
<svg version="1.0" xmlns="http://www.w3.org/2000/svg"
 width="200.000000pt" height="200.000000pt" viewBox="0 0 200.000000 200.000000"
 preserveAspectRatio="xMidYMid meet">
<metadata>
Created by potrace 1.13, written by Peter Selinger 2001-2015
</metadata>
<g transform="translate(0.000000,200.000000) scale(0.100000,-0.100000)"
fill="#000000" stroke="none">
<path d="M356 1593 c-3 -3 -6 -16 -6 -29 0 -16 7 -24 28 -28 61 -13 422 -76
432 -76 5 0 10 14 10 30 0 17 -4 30 -8 30 -9 0 -393 67 -428 75 -12 3 -24 2
-28 -2z"/>
<path d="M1590 1590 c-19 -4 -119 -23 -222 -40 -152 -27 -188 -36 -188 -49 1
-44 8 -44 246 -1 125 23 230 43 232 44 1 2 0 15 -4 30 -7 28 -10 28 -64 16z"/>
<path d="M1207 1380 c-23 -18 -40 -20 -210 -20 -152 0 -187 3 -197 15 -11 13
-67 15 -390 15 -352 0 -378 -1 -393 -18 -21 -23 -21 -41 -1 -70 l15 -22 374 0
c319 0 376 2 389 15 10 11 36 15 85 15 l71 0 0 -100 0 -100 50 0 50 0 0 100 0
100 69 0 c41 0 80 -6 97 -15 24 -12 88 -15 380 -15 340 0 352 1 378 21 31 24
33 52 6 79 -19 19 -33 20 -384 20 -348 0 -364 -1 -389 -20z"/>
<path d="M902 1049 c-139 -21 -295 -96 -437 -210 -88 -71 -115 -103 -115 -135
0 -32 58 -95 155 -167 349 -260 705 -245 1044 45 120 102 124 127 37 210 -107
102 -293 210 -417 242 -77 20 -193 26 -267 15z m-109 -389 c12 -92 86 -158
186 -167 113 -10 206 59 226 170 l7 37 182 0 181 -1 -55 -50 c-207 -187 -444
-264 -658 -214 -125 30 -275 113 -383 214 l-54 50 181 1 181 0 6 -40z"/>
</g>
</svg>
