<?xml version="1.0" standalone="no"?>
<!DOCTYPE svg PUBLIC "-//W3C//DTD SVG 20010904//EN"
 "http://www.w3.org/TR/2001/REC-SVG-20010904/DTD/svg10.dtd">
<svg version="1.0" xmlns="http://www.w3.org/2000/svg"
 width="200.000000pt" height="200.000000pt" viewBox="0 0 200.000000 200.000000"
 preserveAspectRatio="xMidYMid meet">
<metadata>
Created by potrace 1.13, written by Peter Selinger 2001-2015
</metadata>
<g transform="translate(0.000000,200.000000) scale(0.100000,-0.100000)"
fill="#000000" stroke="none">
<path d="M507 1590 c-55 -14 -91 -35 -121 -70 -34 -41 -33 -80 1 -121 43 -51
103 -73 208 -75 l90 -2 25 -58 c37 -89 34 -188 -8 -274 -17 -36 -44 -80 -59
-98 l-28 -33 -45 17 c-33 13 -78 18 -165 18 -101 1 -131 -3 -187 -22 -142 -49
-213 -123 -213 -222 0 -69 33 -124 102 -169 82 -55 164 -76 293 -76 129 0 211
21 293 76 69 46 102 100 102 170 0 48 -5 64 -32 102 -18 25 -33 47 -33 50 0 3
23 11 52 17 50 12 53 12 67 -10 44 -66 42 -65 151 -65 109 0 107 -1 151 65 14
22 17 22 67 10 29 -6 52 -14 52 -16 0 -2 -15 -24 -32 -50 -28 -39 -33 -54 -33
-103 0 -70 33 -124 102 -170 82 -55 164 -76 293 -76 129 0 211 21 293 76 69
45 102 100 102 169 0 69 -33 124 -102 169 -85 56 -163 76 -298 75 -87 0 -132
-5 -165 -18 l-45 -17 -27 33 c-15 18 -42 62 -60 98 -28 57 -32 75 -32 145 0
59 6 95 22 135 l22 55 87 0 c106 0 169 21 213 71 39 45 39 83 0 128 -44 50
-107 71 -210 71 -103 0 -166 -21 -210 -71 -37 -43 -39 -82 -4 -123 l25 -30
-38 -16 c-20 -9 -68 -21 -105 -27 -75 -13 -171 -2 -241 27 l-38 16 25 30 c15
17 26 43 26 59 0 39 -49 93 -103 115 -50 20 -176 28 -230 15z m232 -39 c81
-42 78 -105 -7 -144 -67 -31 -197 -31 -264 0 -105 48 -81 130 47 164 54 15
178 3 224 -20z m800 0 c81 -42 78 -105 -7 -144 -67 -31 -197 -31 -264 0 -105
48 -81 130 47 164 54 15 178 3 224 -20z m-465 -322 c80 -22 110 -93 60 -143
-83 -83 -295 -45 -294 53 1 76 120 122 234 90z m-483 -381 c106 -39 169 -101
169 -168 0 -40 -32 -90 -77 -121 -161 -111 -467 -101 -591 20 -114 111 -25
244 193 291 73 16 233 5 306 -22z m1200 0 c106 -39 169 -101 169 -168 0 -40
-32 -90 -77 -121 -161 -111 -467 -101 -591 20 -114 111 -25 244 193 291 73 16
233 5 306 -22z"/>
<path d="M342 712 c-122 -70 -222 -130 -222 -133 0 -9 111 -58 146 -64 26 -5
48 10 202 141 95 81 171 148 169 150 -2 2 -19 10 -38 18 l-35 15 -222 -127z"/>
<path d="M1542 712 c-122 -70 -222 -130 -222 -133 0 -9 111 -58 146 -64 26 -5
48 10 202 141 95 81 171 148 169 150 -2 2 -19 10 -38 18 l-35 15 -222 -127z"/>
</g>
</svg>
