<?xml version="1.0" standalone="no"?>
<!DOCTYPE svg PUBLIC "-//W3C//DTD SVG 20010904//EN"
 "http://www.w3.org/TR/2001/REC-SVG-20010904/DTD/svg10.dtd">
<svg version="1.0" xmlns="http://www.w3.org/2000/svg"
 width="200.000000pt" height="200.000000pt" viewBox="0 0 200.000000 200.000000"
 preserveAspectRatio="xMidYMid meet">
<metadata>
Created by potrace 1.13, written by Peter Selinger 2001-2015
</metadata>
<g transform="translate(0.000000,200.000000) scale(0.100000,-0.100000)"
fill="#000000" stroke="none">
<path d="M313 1530 c-15 -17 -30 -20 -115 -20 -80 0 -98 -3 -98 -15 0 -12 18
-15 100 -15 108 0 122 -8 80 -50 -17 -17 -20 -33 -20 -105 l0 -85 234 -2 235
-3 -50 -80 c-87 -140 -92 -162 -97 -382 l-4 -193 36 0 36 0 0 143 c0 215 16
275 114 427 l35 55 1 -33 c0 -42 24 -84 60 -106 22 -12 54 -16 140 -16 149 0
177 15 205 109 l10 35 42 -70 c86 -141 87 -147 91 -356 l4 -188 40 0 40 0 -4
178 c-6 207 -20 263 -94 382 -25 41 -48 81 -51 88 -4 9 45 12 226 12 l231 0 0
90 c0 79 -2 91 -20 102 -11 7 -20 21 -20 30 0 16 11 18 100 18 82 0 100 3 100
15 0 12 -17 15 -95 15 -82 0 -98 3 -115 20 -11 11 -27 20 -35 20 -8 0 -24 -9
-35 -20 -17 -17 -33 -20 -110 -20 -73 0 -90 -3 -90 -15 0 -12 17 -15 95 -15
102 0 116 -8 75 -45 -15 -14 -20 -31 -20 -72 l0 -53 -565 0 -565 0 0 44 c0 28
-7 52 -20 69 -39 49 -30 56 75 59 128 4 128 22 1 26 -86 2 -102 6 -113 22 -18
26 -49 25 -70 0z"/>
<path d="M866 954 c-9 -8 -16 -24 -16 -33 0 -16 -11 -19 -77 -23 -59 -4 -79
-9 -90 -24 -20 -28 -19 -372 3 -402 15 -22 17 -22 310 -22 185 0 303 4 315 10
18 10 19 23 19 209 0 231 4 223 -101 229 -63 4 -70 6 -75 28 -10 37 -33 44
-158 44 -91 0 -118 -3 -130 -16z m174 -204 c0 -28 3 -30 35 -30 35 0 35 0 35
-45 0 -45 0 -45 -35 -45 -33 0 -35 -2 -35 -35 0 -34 -1 -35 -40 -35 -39 0 -40
1 -40 35 0 33 -2 35 -36 35 l-35 0 3 43 c3 39 5 42 36 45 28 3 32 7 32 33 0
27 2 29 40 29 38 0 40 -2 40 -30z"/>
</g>
</svg>
