<?xml version="1.0" encoding="UTF-8" standalone="no"?>
<svg
   xmlns:ooo="http://xml.openoffice.org/svg/export"
   xmlns:dc="http://purl.org/dc/elements/1.1/"
   xmlns:cc="http://creativecommons.org/ns#"
   xmlns:rdf="http://www.w3.org/1999/02/22-rdf-syntax-ns#"
   xmlns:svg="http://www.w3.org/2000/svg"
   xmlns="http://www.w3.org/2000/svg"
   xmlns:sodipodi="http://sodipodi.sourceforge.net/DTD/sodipodi-0.dtd"
   xmlns:inkscape="http://www.inkscape.org/namespaces/inkscape"
   version="1.2"
   width="203.45mm"
   height="67.56mm"
   viewBox="0 0 20345 6756"
   preserveAspectRatio="xMidYMid"
   fill-rule="evenodd"
   stroke-width="28.222"
   stroke-linejoin="round"
   xml:space="preserve"
   id="svg90"
   sodipodi:docname="tsa.svg"
   inkscape:version="0.92.0 r"><metadata
     id="metadata94"><rdf:RDF><cc:Work
         rdf:about=""><dc:format>image/svg+xml</dc:format><dc:type
           rdf:resource="http://purl.org/dc/dcmitype/StillImage" /></cc:Work></rdf:RDF></metadata><sodipodi:namedview
     pagecolor="#ffffff"
     bordercolor="#666666"
     borderopacity="1"
     objecttolerance="10"
     gridtolerance="10"
     guidetolerance="10"
     inkscape:pageopacity="0"
     inkscape:pageshadow="2"
     inkscape:window-width="1920"
     inkscape:window-height="937"
     id="namedview92"
     showgrid="false"
     inkscape:zoom="1.1476366"
     inkscape:cx="449.15465"
     inkscape:cy="51.996645"
     inkscape:window-x="1920"
     inkscape:window-y="27"
     inkscape:window-maximized="1"
     inkscape:current-layer="g83" /><defs
     class="ClipPathGroup"
     id="defs5"><clipPath
       id="presentation_clip_path"
       clipPathUnits="userSpaceOnUse"><rect
         x="0"
         y="0"
         width="20345"
         height="6756"
         id="rect2" /></clipPath></defs><defs
     class="TextShapeIndex"
     id="defs9"><g
       ooo:slide="id1"
       ooo:id-list="id3 id4 id5 id6 id7 id8"
       id="g7" /></defs><defs
     class="EmbeddedBulletChars"
     id="defs38"><g
       id="bullet-char-template(57356)"
       transform="scale(0.00048828125,-0.00048828125)"><path
         d="M 580,1141 L 1163,571 580,0 -4,571 580,1141 Z"
         id="path11" /></g><g
       id="bullet-char-template(57354)"
       transform="scale(0.00048828125,-0.00048828125)"><path
         d="M 8,1128 L 1137,1128 1137,0 8,0 8,1128 Z"
         id="path14" /></g><g
       id="bullet-char-template(10146)"
       transform="scale(0.00048828125,-0.00048828125)"><path
         d="M 174,0 L 602,739 174,1481 1456,739 174,0 Z M 1358,739 L 309,1346 659,739 1358,739 Z"
         id="path17" /></g><g
       id="bullet-char-template(10132)"
       transform="scale(0.00048828125,-0.00048828125)"><path
         d="M 2015,739 L 1276,0 717,0 1260,543 174,543 174,936 1260,936 717,1481 1274,1481 2015,739 Z"
         id="path20" /></g><g
       id="bullet-char-template(10007)"
       transform="scale(0.00048828125,-0.00048828125)"><path
         d="M 0,-2 C -7,14 -16,27 -25,37 L 356,567 C 262,823 215,952 215,954 215,979 228,992 255,992 264,992 276,990 289,987 310,991 331,999 354,1012 L 381,999 492,748 772,1049 836,1024 860,1049 C 881,1039 901,1025 922,1006 886,937 835,863 770,784 769,783 710,716 594,584 L 774,223 C 774,196 753,168 711,139 L 727,119 C 717,90 699,76 672,76 641,76 570,178 457,381 L 164,-76 C 142,-110 111,-127 72,-127 30,-127 9,-110 8,-76 1,-67 -2,-52 -2,-32 -2,-23 -1,-13 0,-2 Z"
         id="path23" /></g><g
       id="bullet-char-template(10004)"
       transform="scale(0.00048828125,-0.00048828125)"><path
         d="M 285,-33 C 182,-33 111,30 74,156 52,228 41,333 41,471 41,549 55,616 82,672 116,743 169,778 240,778 293,778 328,747 346,684 L 369,508 C 377,444 397,411 428,410 L 1163,1116 C 1174,1127 1196,1133 1229,1133 1271,1133 1292,1118 1292,1087 L 1292,965 C 1292,929 1282,901 1262,881 L 442,47 C 390,-6 338,-33 285,-33 Z"
         id="path26" /></g><g
       id="bullet-char-template(9679)"
       transform="scale(0.00048828125,-0.00048828125)"><path
         d="M 813,0 C 632,0 489,54 383,161 276,268 223,411 223,592 223,773 276,916 383,1023 489,1130 632,1184 813,1184 992,1184 1136,1130 1245,1023 1353,916 1407,772 1407,592 1407,412 1353,268 1245,161 1136,54 992,0 813,0 Z"
         id="path29" /></g><g
       id="bullet-char-template(8226)"
       transform="scale(0.00048828125,-0.00048828125)"><path
         d="M 346,457 C 273,457 209,483 155,535 101,586 74,649 74,723 74,796 101,859 155,911 209,963 273,989 346,989 419,989 480,963 531,910 582,859 608,796 608,723 608,648 583,586 532,535 482,483 420,457 346,457 Z"
         id="path32" /></g><g
       id="bullet-char-template(8211)"
       transform="scale(0.00048828125,-0.00048828125)"><path
         d="M -4,459 L 1135,459 1135,606 -4,606 -4,459 Z"
         id="path35" /></g></defs><defs
     class="TextEmbeddedBitmaps"
     id="defs40" /><g
     id="g45"><g
       id="id2"
       class="Master_Slide"><g
         id="bg-id2"
         class="Background" /><g
         id="bo-id2"
         class="BackgroundObjects" /></g></g><g
     class="SlideGroup"
     id="g88"><g
       id="g86"><g
         id="id1"
         class="Slide"
         clip-path="url(#presentation_clip_path)"><g
           class="Page"
           id="g83"><g
             class="com.sun.star.drawing.PolyPolygonShape"
             id="g50"><g
               id="id3"><rect
                 class="BoundingBox"
                 stroke="none"
                 fill="none"
                 x="-1"
                 y="0"
                 width="20359"
                 height="6747"
                 id="rect47" /></g></g><g
             class="com.sun.star.drawing.ClosedBezierShape"
             id="g57"><g
               id="id4"><rect
                 class="BoundingBox"
                 stroke="none"
                 fill="none"
                 x="0"
                 y="0"
                 width="20357"
                 height="6746"
                 id="rect52" /><path
                 fill="rgb(170,64,0)"
                 stroke="none"
                 d="M 7,1415 C -31,1563 93,1563 93,1563 -31,1563 2122,1563 2122,1563 2290,1563 2537,1797 2416,2140 L 634,6745 3475,6745 5205,2125 C 5426,1563 5422,1540 6293,1538 L 14278,1538 C 14552,1538 14578,1531 14695,1723 L 16414,4579 C 16472,4730 16437,4812 16249,4812 L 14557,4812 13840,6745 20178,6744 C 20317,6741 20390,6612 20339,6461 L 16854,377 C 16684,128 16425,-13 16049,1 L 15795,1 715,0 494,0 7,1415 Z"
                 id="path54"
                 style="fill:#ffffff" /></g></g><g
             class="com.sun.star.drawing.PolyPolygonShape"
             id="g62"><g
               id="id5"><rect
                 class="BoundingBox"
                 stroke="none"
                 fill="none"
                 x="11557"
                 y="1797"
                 width="3342"
                 height="4949"
                 id="rect59" /></g></g><g
             class="com.sun.star.drawing.ClosedBezierShape"
             id="g69"><g
               id="id6"><rect
                 class="BoundingBox"
                 stroke="none"
                 fill="none"
                 x="11557"
                 y="1797"
                 width="3341"
                 height="4948"
                 id="rect64" /><path
                 fill="rgb(170,64,0)"
                 stroke="none"
                 d="M 11557,6744 C 11557,6744 11793,6744 12060,6188 12244,5804 12714,4494 12813,4104 12995,3387 12033,2955 12033,2955 11953,2915 11929,2878 11943,2832 L 12343,1797 14085,1797 C 14212,1811 14241,1825 14351,1946 L 14872,2745 C 14908,2804 14900,2837 14873,2909 L 13450,6744 11557,6744 Z"
                 id="path66"
                 style="fill:#ffffff" /></g></g><g
             class="com.sun.star.drawing.PolyPolygonShape"
             id="g74"><g
               id="id7"><rect
                 class="BoundingBox"
                 stroke="none"
                 fill="none"
                 x="3866"
                 y="1824"
                 width="8555"
                 height="4922"
                 id="rect71" /></g></g><g
             class="com.sun.star.drawing.ClosedBezierShape"
             id="g81"><g
               id="id8"><rect
                 class="BoundingBox"
                 stroke="none"
                 fill="none"
                 x="3866"
                 y="1824"
                 width="8554"
                 height="4921"
                 id="rect76" /><path
                 fill="rgb(170,64,0)"
                 stroke="none"
                 d="M 10391,6744 C 10391,6744 10742,6738 10800,6733 11103,6709 11282,6649 11515,6368 11768,6062 12389,4440 12416,4062 12445,3667 12224,3440 11922,3267 11654,3114 9669,2318 9601,2288 9534,2258 9491,2195 9473,2093 9455,1992 9498,1824 9498,1824 L 6368,1824 C 6368,1824 6205,2372 6184,2700 6168,2955 6319,3055 6412,3120 6533,3207 9459,4462 9557,4522 9692,4603 9809,4875 9416,4875 L 4566,4875 3866,6744 10391,6744 Z"
                 id="path78"
                 style="fill:#ffffff" /></g></g></g></g></g></g></svg>